<svg width="20" height="20" viewBox="0 0 20 20" fill="#81A0B9" xmlns="http://www.w3.org/2000/svg">
<path d="M7 0.4578V2.58152C4.06817 3.76829 2 6.64262 2 10C2 14.4183 5.58172 18 10 18C13.3574 18 16.2317 15.9318 17.4185 13H19.5422C18.2679 17.0571 14.4776 20 10 20C4.47715 20 0 15.5228 0 10C0 5.52236 2.94289 1.73207 7 0.4578ZM10 0C15.5228 0 20 4.47715 20 10C20 10.3375 19.9833 10.6711 19.9506 11H9V0.0493801C9.3289 0.0167201 9.6625 0 10 0ZM11 2.06189V9H17.9381C17.4869 5.38128 14.6187 2.51314 11 2.06189Z" fill="#81A0B9"/>
</svg>
